<?xml version="1.0" encoding="utf-8"?><svg width="176" height="85" viewBox="0 0 176 85" xmlns="http://www.w3.org/2000/svg" xmlns:xlink="http://www.w3.org/1999/xlink"><view id="image-arrow-down" viewBox="0 64 18 21"/><svg width="18" height="21" fill="none" viewBox="-1 -1 18 21" y="64" xmlns="http://www.w3.org/2000/svg"><path d="M8.032 1l-.064 16m0 0L15 10.308M7.968 17L1 10.369" stroke="#fff" stroke-width="2"/></svg><view id="image-header-logo" viewBox="0 0 176 64"/><svg width="176" height="64" fill="none" viewBox="-1 -1 176 64" xmlns="http://www.w3.org/2000/svg"><path d="M107.003 17.698v23.295c0 2.28-1.075 2.756-1.973 2.756a2.991 2.991 0 01-1.568-.415c-.459-.276-.939-.677-1.446-1.195L90.412 26.75v16.758h-4.844V20.241c0-.753.213-1.375.63-1.838.419-.463 1.021-.704 1.796-.704.486 0 .952.103 1.376.31.439.215.857.595 1.247 1.12l11.549 15.322V17.698h4.837z" fill="#fff"/><path d="M150.729 43.52h-2.617V31.605h2.617v11.917zM161.95 31.605V42.2c0 1.237-.664 1.423-1.062 1.423-.301 0-.576-.069-.808-.207a4.382 4.382 0 01-.678-.56l-.027-.04-4.831-6.404v7.108h-2.541V32.938c0-.394.11-.719.329-.954.151-.165.439-.38.939-.38.24 0 .479.056.705.166.213.097.432.29.624.553l4.816 6.39v-7.108h2.534zM165.8 36.26a3.486 3.486 0 00-.253 1.34c0 .491.074.926.239 1.327.171.408.391.74.685 1.023.295.29.651.51 1.049.676.404.166.863.25 1.37.25h1.966v2.645h-1.966a6.124 6.124 0 01-2.405-.47 5.703 5.703 0 01-1.884-1.285 5.953 5.953 0 01-1.24-1.927 6.677 6.677 0 01-.438-2.39c0-.857.151-1.651.438-2.356a5.314 5.314 0 011.233-1.851 5.501 5.501 0 011.884-1.202c.727-.29 1.534-.435 2.412-.435h1.966v2.645h-1.966c-.487 0-.925.083-1.343.256-.411.166-.761.4-1.055.69-.294.298-.52.643-.692 1.065z" fill="#E3E3E3"/><path d="M56.57 50.167c0 2.238-1.808 4.061-4.027 4.061-2.22 0-4.029-1.823-4.029-4.061 0-2.239 1.809-4.062 4.029-4.062 2.22 0 4.028 1.823 4.028 4.062zM24.195 17.698v23.467c0 .733-.198 1.34-.582 1.796-.397.477-.938.719-1.596.719-.527 0-1.034-.11-1.514-.325-.48-.235-.904-.608-1.26-1.112L3.055 17.698H9.05l10.132 16.13v-16.13h5.014zM32.766 43.507H27.75V17.7h5.015v25.808zM114.792 43.507h-5.014V17.7h5.014v25.808zM150.613 17.698v5.057h-6.337v20.752h-5.014V22.755h-14.386c-.843 0-1.48.221-1.945.67-.467.45-.692.96-.692 1.561 0 .684.239 1.237.719 1.693.493.463 1.117.69 1.918.69h2.459c1.138 0 2.213.194 3.193.588a7.559 7.559 0 012.541 1.658 7.744 7.744 0 011.664 2.563c.397.988.596 2.072.596 3.226 0 1.16-.218 2.252-.651 3.247a7.567 7.567 0 01-1.814 2.576c-.768.719-1.706 1.278-2.802 1.68-1.076.393-2.289.6-3.59.6h-9.077V38.45h9.077c1.254 0 2.294-.31 3.096-.912.788-.594 1.165-1.326 1.165-2.238 0-.918-.377-1.65-1.165-2.238-.794-.608-1.835-.912-3.096-.912h-1.98a8.165 8.165 0 01-2.959-.532 7.11 7.11 0 01-2.385-1.485 6.847 6.847 0 01-1.581-2.28c-.391-.863-.583-1.837-.583-2.894 0-1.036.192-2.003.583-2.867a6.778 6.778 0 011.651-2.314c.712-.656 1.581-1.174 2.582-1.534.98-.366 2.089-.546 3.281-.546h25.532zM34.307 11.28c0 2.24-1.802 4.063-4.021 4.063-2.22 0-4.028-1.824-4.028-4.062 0-2.238 1.808-4.062 4.028-4.062 2.22 0 4.02 1.824 4.02 4.062zM76.738 35.342c-.02.041-.055.083-.082.124-.11.145-.212.29-.343.422-.006.007-.013.02-.02.027l-.11.132c-1.425 1.595-3.404 2.404-5.925 2.404a10.3 10.3 0 01-1.692-.139h-.007c-1.596-.27-2.946-.96-4.015-2.044l-.102-.104c-.035-.041-.076-.083-.11-.124-1.288-1.437-1.945-3.24-1.945-5.354 0-2.287.746-4.2 2.212-5.7 1.473-1.478 3.377-2.23 5.7-2.23 2.288 0 4.185.745 5.658 2.217 1.466 1.471 2.206 3.392 2.206 5.713 0 1.789-.48 3.357-1.425 4.656zm3.268-13.726c-2.336-2.598-5.597-3.917-9.748-3.917-4.11 0-7.385 1.333-9.742 3.951-2.089 2.314-3.144 5.23-3.144 8.684 0 3.226.939 6.072 2.802 8.455.15.193.301.394.473.58 2.41 2.75 5.644 4.138 9.652 4.138 3.96 0 7.193-1.388 9.61-4.138.247-.29.494-.6.734-.925l.103-.146c.075-.117.15-.22.219-.331 1.466-2.19 2.212-4.76 2.212-7.633 0-3.454-1.068-6.39-3.171-8.718z" fill="#fff"/><path d="M68.559 38.312c-1.596-.27-2.946-.96-4.015-2.045l-.102-.103h.007l.136.103c1.076 1.078 2.405 1.769 3.974 2.045zM54.981 43.507h-5.014V17.7h5.014v25.808z" fill="#fff"/><path d="M51.597 3.544v8.897l-.336.007c-3.35.083-5.199 2.128-5.199 5.762l-.014 18.893-.007 7.288v.028c-.87 6.956-6.048 13.989-14.269 13.989h-.342v-9.36l.308-.035c3.26-.325 5.206-2.556 5.206-5.962l-.007-25.601c.007-7.668 6.433-13.906 14.318-13.906h.342z" fill="#1B75BC"/></svg></svg>