<?xml version="1.0" encoding="utf-8"?><svg width="720" height="303" viewBox="0 0 720 303" xmlns="http://www.w3.org/2000/svg" xmlns:xlink="http://www.w3.org/1999/xlink"><view id="image-arrow-blue" viewBox="450 237 40 39"/><svg width="40" height="39" fill="none" viewBox="-1 -1 40 39" x="450" y="237" xmlns="http://www.w3.org/2000/svg"><path d="M2.373 34.9l32.65-32.403m0 0l-27.1.108m27.1-.108l-.107 26.854" stroke="#1B75BC" stroke-width="4"/></svg><view id="image-arrow-down" viewBox="516 237 18 21"/><svg width="18" height="21" fill="none" viewBox="-1 -1 18 21" x="516" y="237" xmlns="http://www.w3.org/2000/svg"><path d="M8.032 1l-.064 16m0 0L15 10.308M7.968 17L1 10.369" stroke="#fff" stroke-width="2"/></svg><view id="image-arrow-small-blue" viewBox="551 237 16 16"/><svg width="16" height="16" fill="none" viewBox="-1 -1 16 16" x="551" y="237" xmlns="http://www.w3.org/2000/svg"><path d="M.954 12.954l12-11.908m0 0h-10m10 0v9.908" stroke="#1B75BC" stroke-width="2"/></svg><view id="image-arrow45" viewBox="534 237 17 17"/><svg width="17" height="17" fill="none" viewBox="-1 -1 17 17" x="534" y="237" xmlns="http://www.w3.org/2000/svg"><path d="M1.088 13.818l12-11.908m0 0h-10m10 0v9.908" stroke="#fff" stroke-width="2"/></svg><view id="image-footer-logo" viewBox="0 237 200 66"/><svg width="200" height="66" fill="none" viewBox="-1 -1 200 66" y="237" xmlns="http://www.w3.org/2000/svg"><path d="M122.278 16.512v27.173c0 2.659-1.265 3.223-2.32 3.223a3.55 3.55 0 01-1.846-.483 8.885 8.885 0 01-1.7-1.394l-13.651-17.963v19.55h-5.697v-27.14c-.035-.784.23-1.55.74-2.144a2.724 2.724 0 012.112-.806 3.692 3.692 0 011.612.363c.585.313 1.088.76 1.467 1.305l13.586 17.873V16.512h5.697zM173.715 32.733h-3.078v13.901h3.078v-13.9zM186.955 32.733v12.394c0 1.443-.806 1.66-1.249 1.66a1.855 1.855 0 01-.951-.241 5.11 5.11 0 01-.806-.653v-.049l-5.681-7.47v8.26h-2.989V34.29a1.613 1.613 0 01.386-1.112 1.443 1.443 0 011.104-.444c.28.005.555.07.806.194.294.15.546.372.734.645l5.64 7.454v-8.293h3.006zM191.444 38.164a4.009 4.009 0 00-.298 1.564c-.01.53.086 1.055.282 1.547.182.45.456.856.805 1.193a3.86 3.86 0 001.233.805c.514.2 1.061.3 1.612.29h2.353v3.087h-2.313a7.251 7.251 0 01-2.828-.548 6.694 6.694 0 01-2.216-1.499 6.935 6.935 0 01-1.507-2.264 7.705 7.705 0 01-.516-2.789 7.202 7.202 0 01.516-2.747 6.187 6.187 0 011.45-2.16 6.458 6.458 0 012.216-1.402 7.657 7.657 0 012.837-.508h2.361v3.086h-2.313c-.551-.01-1.1.091-1.611.298a3.754 3.754 0 00-1.241.806 3.684 3.684 0 00-.822 1.241zM60.026 58.762a4.738 4.738 0 10-3.627-8.756 4.738 4.738 0 003.627 8.756zM24.868 16.512V43.91a3.15 3.15 0 01-.685 2.096 2.344 2.344 0 01-1.877.805 4.36 4.36 0 01-1.781-.378 3.956 3.956 0 01-1.483-1.306L0 16.512h7.051L18.97 35.328V16.512h5.9zM34.95 16.512h-5.9v30.106h5.9V16.512zM131.441 16.512h-5.899v30.106h5.899V16.512zM173.579 16.512v5.898h-7.454v24.176h-5.899V22.41h-16.923a3.151 3.151 0 00-2.288.805 2.407 2.407 0 00-.798 1.765 2.579 2.579 0 00.806 2.007 3.142 3.142 0 002.256.806h2.893c1.284-.013 2.558.22 3.755.684a8.872 8.872 0 012.99 1.934 9.04 9.04 0 011.958 2.99 9.953 9.953 0 01.701 3.764 9.378 9.378 0 01-.806 3.787 8.867 8.867 0 01-2.135 3.006 9.58 9.58 0 01-3.232 1.974 12.377 12.377 0 01-4.222.701h-10.678V40.72h10.678a5.971 5.971 0 003.642-1.063 3.183 3.183 0 001.369-2.611 3.18 3.18 0 00-1.369-2.611 5.881 5.881 0 00-3.642-1.064h-2.329a9.667 9.667 0 01-3.481-.62 8.36 8.36 0 01-2.805-1.733 7.964 7.964 0 01-1.861-2.66 8.585 8.585 0 010-6.72 7.92 7.92 0 011.942-2.7 8.87 8.87 0 013.038-1.789 11.112 11.112 0 013.86-.636h30.034zM36.762 9.025a4.738 4.738 0 11-9.476 0 4.738 4.738 0 019.476 0zM90.52 21.08c-2.747-3.03-6.583-4.568-11.467-4.568-4.883 0-8.687 1.555-11.459 4.61a14.506 14.506 0 00-3.698 10.129 15.53 15.53 0 003.295 9.847c.178.226.355.46.556.677 2.837 3.223 6.64 4.835 11.355 4.835a14.433 14.433 0 0011.282-4.835c.29-.339.58-.701.862-1.08l.12-.17.259-.386a15.609 15.609 0 002.602-8.864 14.61 14.61 0 00-3.706-10.194zM86.678 37.07a4.674 4.674 0 01-.5.637l-.129.153a8.913 8.913 0 01-6.97 2.804c-.667 0-1.333-.053-1.99-.161a8.477 8.477 0 01-4.723-2.418l-.12-.12-.162-.09a9.018 9.018 0 01-2.289-6.245 9.284 9.284 0 1118.535 0 8.97 8.97 0 01-1.652 5.44zM61.082 16.512h-5.898v30.106h5.898V16.512z" fill="#fff"/><path d="M57.102 0v10.38h-.395c-3.94.096-6.116 2.481-6.116 6.72v30.582C49.568 55.796 43.475 64 33.805 64h-.403V53.08l.363-.04c3.836-.378 6.124-2.981 6.124-6.954V16.222C39.865 7.252 47.424 0 56.7 0h.403z" fill="#fff"/></svg><view id="image-header-logo" viewBox="200 237 176 64"/><svg width="176" height="64" fill="none" viewBox="-1 -1 176 64" x="200" y="237" xmlns="http://www.w3.org/2000/svg"><path d="M107.003 17.698v23.295c0 2.28-1.075 2.756-1.973 2.756a2.991 2.991 0 01-1.568-.415c-.459-.276-.939-.677-1.446-1.195L90.412 26.75v16.758h-4.844V20.241c0-.753.213-1.375.63-1.838.419-.463 1.021-.704 1.796-.704.486 0 .952.103 1.376.31.439.215.857.595 1.247 1.12l11.549 15.322V17.698h4.837z" fill="#fff"/><path d="M150.729 43.52h-2.617V31.605h2.617v11.917zM161.95 31.605V42.2c0 1.237-.664 1.423-1.062 1.423-.301 0-.576-.069-.808-.207a4.382 4.382 0 01-.678-.56l-.027-.04-4.831-6.404v7.108h-2.541V32.938c0-.394.11-.719.329-.954.151-.165.439-.38.939-.38.24 0 .479.056.705.166.213.097.432.29.624.553l4.816 6.39v-7.108h2.534zM165.8 36.26a3.486 3.486 0 00-.253 1.34c0 .491.074.926.239 1.327.171.408.391.74.685 1.023.295.29.651.51 1.049.676.404.166.863.25 1.37.25h1.966v2.645h-1.966a6.124 6.124 0 01-2.405-.47 5.703 5.703 0 01-1.884-1.285 5.953 5.953 0 01-1.24-1.927 6.677 6.677 0 01-.438-2.39c0-.857.151-1.651.438-2.356a5.314 5.314 0 011.233-1.851 5.501 5.501 0 011.884-1.202c.727-.29 1.534-.435 2.412-.435h1.966v2.645h-1.966c-.487 0-.925.083-1.343.256-.411.166-.761.4-1.055.69-.294.298-.52.643-.692 1.065z" fill="#E3E3E3"/><path d="M56.57 50.167c0 2.238-1.808 4.061-4.027 4.061-2.22 0-4.029-1.823-4.029-4.061 0-2.239 1.809-4.062 4.029-4.062 2.22 0 4.028 1.823 4.028 4.062zM24.195 17.698v23.467c0 .733-.198 1.34-.582 1.796-.397.477-.938.719-1.596.719-.527 0-1.034-.11-1.514-.325-.48-.235-.904-.608-1.26-1.112L3.055 17.698H9.05l10.132 16.13v-16.13h5.014zM32.766 43.507H27.75V17.7h5.015v25.808zM114.792 43.507h-5.014V17.7h5.014v25.808zM150.613 17.698v5.057h-6.337v20.752h-5.014V22.755h-14.386c-.843 0-1.48.221-1.945.67-.467.45-.692.96-.692 1.561 0 .684.239 1.237.719 1.693.493.463 1.117.69 1.918.69h2.459c1.138 0 2.213.194 3.193.588a7.559 7.559 0 012.541 1.658 7.744 7.744 0 011.664 2.563c.397.988.596 2.072.596 3.226 0 1.16-.218 2.252-.651 3.247a7.567 7.567 0 01-1.814 2.576c-.768.719-1.706 1.278-2.802 1.68-1.076.393-2.289.6-3.59.6h-9.077V38.45h9.077c1.254 0 2.294-.31 3.096-.912.788-.594 1.165-1.326 1.165-2.238 0-.918-.377-1.65-1.165-2.238-.794-.608-1.835-.912-3.096-.912h-1.98a8.165 8.165 0 01-2.959-.532 7.11 7.11 0 01-2.385-1.485 6.847 6.847 0 01-1.581-2.28c-.391-.863-.583-1.837-.583-2.894 0-1.036.192-2.003.583-2.867a6.778 6.778 0 011.651-2.314c.712-.656 1.581-1.174 2.582-1.534.98-.366 2.089-.546 3.281-.546h25.532zM34.307 11.28c0 2.24-1.802 4.063-4.021 4.063-2.22 0-4.028-1.824-4.028-4.062 0-2.238 1.808-4.062 4.028-4.062 2.22 0 4.02 1.824 4.02 4.062zM76.738 35.342c-.02.041-.055.083-.082.124-.11.145-.212.29-.343.422-.006.007-.013.02-.02.027l-.11.132c-1.425 1.595-3.404 2.404-5.925 2.404a10.3 10.3 0 01-1.692-.139h-.007c-1.596-.27-2.946-.96-4.015-2.044l-.102-.104c-.035-.041-.076-.083-.11-.124-1.288-1.437-1.945-3.24-1.945-5.354 0-2.287.746-4.2 2.212-5.7 1.473-1.478 3.377-2.23 5.7-2.23 2.288 0 4.185.745 5.658 2.217 1.466 1.471 2.206 3.392 2.206 5.713 0 1.789-.48 3.357-1.425 4.656zm3.268-13.726c-2.336-2.598-5.597-3.917-9.748-3.917-4.11 0-7.385 1.333-9.742 3.951-2.089 2.314-3.144 5.23-3.144 8.684 0 3.226.939 6.072 2.802 8.455.15.193.301.394.473.58 2.41 2.75 5.644 4.138 9.652 4.138 3.96 0 7.193-1.388 9.61-4.138.247-.29.494-.6.734-.925l.103-.146c.075-.117.15-.22.219-.331 1.466-2.19 2.212-4.76 2.212-7.633 0-3.454-1.068-6.39-3.171-8.718z" fill="#fff"/><path d="M68.559 38.312c-1.596-.27-2.946-.96-4.015-2.045l-.102-.103h.007l.136.103c1.076 1.078 2.405 1.769 3.974 2.045zM54.981 43.507h-5.014V17.7h5.014v25.808z" fill="#fff"/><path d="M51.597 3.544v8.897l-.336.007c-3.35.083-5.199 2.128-5.199 5.762l-.014 18.893-.007 7.288v.028c-.87 6.956-6.048 13.989-14.269 13.989h-.342v-9.36l.308-.035c3.26-.325 5.206-2.556 5.206-5.962l-.007-25.601c.007-7.668 6.433-13.906 14.318-13.906h.342z" fill="#1B75BC"/></svg><view id="image-header-logo-black" viewBox="0 0 720 237"/><svg width="720" height="237" fill="none" viewBox="-1 -1 720 237" xmlns="http://www.w3.org/2000/svg"><path d="M444.531 60.647v99.563c0 9.744-4.598 11.781-8.436 11.781-2.489 0-4.745-.59-6.707-1.771-1.963-1.181-4.013-2.894-6.181-5.108l-49.619-65.785v71.631h-20.709V71.513c0-3.219.908-5.876 2.694-7.854 1.787-1.978 4.365-3.012 7.675-3.012 2.079 0 4.071.443 5.887 1.329 1.875.915 3.662 2.539 5.331 4.783l49.383 65.49V60.647h20.682z" fill="#000"/><path d="M631.497 171.017h-11.189v-50.933h11.189v50.933zM679.477 120.084v45.293c0 5.285-2.841 6.083-4.54 6.083-1.289 0-2.464-.296-3.457-.886-.878-.561-1.845-1.358-2.899-2.392l-.118-.177-20.653-27.371v30.383h-10.867v-45.235c0-1.683.472-3.071 1.409-4.074.644-.709 1.875-1.624 4.013-1.624 1.025 0 2.05.236 3.014.708.911.414 1.848 1.24 2.668 2.362l20.592 27.312v-30.382h10.838zM695.939 139.985c-.732 1.772-1.084 3.691-1.084 5.728 0 2.096.32 3.957 1.023 5.669.732 1.742 1.672 3.159 2.929 4.37 1.262 1.24 2.785 2.185 4.484 2.894 1.728.708 3.691 1.063 5.859 1.063h8.406v11.308h-8.406c-3.691 0-7.151-.679-10.282-2.008-3.046-1.269-5.741-3.129-8.055-5.492-2.258-2.332-4.042-5.108-5.305-8.237a28.537 28.537 0 01-1.871-10.217c0-3.661.644-7.056 1.871-10.068 1.231-3.071 3.02-5.728 5.273-7.913 2.258-2.215 4.894-3.898 8.055-5.138 3.108-1.24 6.561-1.86 10.314-1.86h8.406v11.309h-8.406c-2.08 0-3.955.354-5.742 1.092a13.609 13.609 0 00-4.51 2.953c-1.26 1.269-2.227 2.746-2.959 4.547z" fill="#6D6F71"/><path d="M228.888 199.422c0 9.566-7.733 17.361-17.223 17.361-9.491 0-17.223-7.795-17.223-17.361 0-9.567 7.732-17.362 17.223-17.362 9.49 0 17.223 7.795 17.223 17.362zM90.456 60.647V160.95c0 3.129-.849 5.728-2.49 7.676-1.698 2.038-4.012 3.071-6.824 3.071-2.256 0-4.423-.472-6.474-1.388-2.05-1.003-3.866-2.598-5.39-4.753L.064 60.647h25.63l43.322 68.944V60.647h21.441z" fill="#000"/><path d="M127.1 170.958h-21.441V60.647H127.1v110.311zM477.835 170.958h-21.441V60.647h21.441v110.311zM631.001 60.647V82.26h-27.095v88.698h-21.441V82.26h-61.512c-3.606 0-6.327.945-8.319 2.865-1.995 1.919-2.958 4.104-2.958 6.673 0 2.923 1.025 5.285 3.075 7.234 2.109 1.978 4.775 2.952 8.202 2.952h10.516c4.862 0 9.461.827 13.649 2.51a32.288 32.288 0 0110.867 7.086c3.017 3.071 5.416 6.732 7.115 10.955 1.699 4.222 2.549 8.858 2.549 13.788 0 4.961-.935 9.626-2.783 13.878a32.342 32.342 0 01-7.759 11.013c-3.281 3.071-7.294 5.463-11.98 7.175-4.599 1.683-9.787 2.569-15.349 2.569h-38.811v-21.613h38.811c5.36 0 9.81-1.329 13.237-3.898 3.371-2.539 4.979-5.669 4.979-9.566 0-3.927-1.608-7.057-4.979-9.567-3.395-2.598-7.848-3.897-13.237-3.897h-8.465c-4.511 0-8.758-.768-12.654-2.274-3.925-1.506-7.352-3.632-10.197-6.348-2.867-2.717-5.152-5.994-6.763-9.744-1.672-3.691-2.493-7.854-2.493-12.371 0-4.43.821-8.563 2.493-12.254 1.611-3.75 4.013-7.086 7.059-9.891 3.047-2.805 6.764-5.02 11.04-6.555 4.192-1.565 8.934-2.333 14.031-2.333h109.172zM133.691 33.217c0 9.567-7.703 17.362-17.194 17.362-9.49 0-17.223-7.795-17.223-17.362 0-9.566 7.733-17.361 17.223-17.361 9.491 0 17.194 7.795 17.194 17.361z" fill="#231F20"/><path d="M315.122 136.058c-.088.177-.235.354-.352.531-.469.621-.908 1.241-1.465 1.802-.029.029-.058.088-.087.118l-.469.561c-6.093 6.82-14.558 10.275-25.337 10.275-2.519 0-4.921-.207-7.235-.591h-.029c-6.825-1.151-12.596-4.104-17.165-8.739l-.439-.443c-.147-.178-.323-.355-.469-.532-5.507-6.141-8.319-13.848-8.319-22.883 0-9.773 3.193-17.952 9.461-24.36 6.298-6.318 14.441-9.536 24.371-9.536 9.783 0 17.897 3.189 24.194 9.478 6.269 6.289 9.432 14.497 9.432 24.418 0 7.648-2.05 14.35-6.092 19.901zm13.972-58.67c-9.989-11.101-23.932-16.74-41.682-16.74-17.575 0-31.576 5.698-41.652 16.889-8.934 9.89-13.445 22.351-13.445 37.114 0 13.789 4.013 25.954 11.98 36.141.645.826 1.289 1.683 2.021 2.48 10.311 11.751 24.136 17.686 41.272 17.686 16.93 0 30.756-5.935 41.095-17.686a74.112 74.112 0 003.135-3.957l.439-.62c.322-.502.644-.945.937-1.417 6.269-9.36 9.461-20.344 9.461-32.627 0-14.763-4.569-27.312-13.561-37.262z" fill="#000"/><path d="M280.148 148.754c-6.825-1.152-12.596-4.105-17.165-8.74l-.44-.443h.03l.586.443c4.598 4.606 10.281 7.559 16.989 8.74z" fill="#231F20"/><path d="M222.092 170.958h-21.441V60.647h21.441v110.311z" fill="#000"/><path d="M207.622.147v38.03l-1.436.03c-14.323.354-22.232 9.094-22.232 24.624l-.058 80.755-.03 31.151v.118c-3.72 29.733-25.864 59.791-61.013 59.791h-1.465v-40.008l1.318-.148c13.943-1.388 22.262-10.925 22.262-25.481l-.03-109.425c.03-32.775 27.505-59.437 61.219-59.437h1.465z" fill="#1B75BC"/></svg><view id="image-quotes" viewBox="376 237 74 64"/><svg width="74" height="64" fill="none" viewBox="-1 -1 74 64" x="376" y="237" xmlns="http://www.w3.org/2000/svg"><path opacity=".1" d="M37.544 43.347c0-9.37 3.869-18.39 11.606-27.059 2.499-2.977 8.1-7.662 16.805-14.055L69.703 0 72 4.335c-5.723 4.466-9.793 8.012-12.21 10.64-4.273 4.64-6.408 8.932-6.408 12.873 0 1.138.12 2.233.362 3.283.323.964.927 1.927 1.814 2.89l2.297 2.496c2.66 2.89 4.433 5.123 5.32 6.7.966 1.575 1.45 3.633 1.45 6.173 0 4.028-1.25 7.137-3.748 9.326C58.38 60.906 55.357 62 51.81 62c-4.191 0-7.617-1.839-10.277-5.517-2.66-3.678-3.99-8.056-3.99-13.136zM0 43.347c0-8.056 2.096-15.018 6.287-20.885 4.19-5.867 11.566-12.61 22.124-20.229L32.038 0l2.297 4.335c-5.4 4.203-9.39 7.706-11.969 10.508-4.433 4.817-6.65 9.108-6.65 12.873 0 1.226.202 2.408.605 3.547a8.545 8.545 0 001.693 2.758l2.297 2.496c2.418 2.54 4.151 4.729 5.199 6.568 1.048 1.751 1.571 3.94 1.571 6.568 0 3.152-1.088 5.998-3.264 8.538-2.176 2.54-5.36 3.809-9.55 3.809-4.03 0-7.416-1.751-10.156-5.254C1.37 53.243 0 48.776 0 43.347z" fill="#1B75BC"/></svg><view id="image-star" viewBox="490 237 26 24"/><svg width="26" height="24" fill="none" viewBox="-1 -1 26 24" x="490" y="237" xmlns="http://www.w3.org/2000/svg"><path d="M12 0l2.694 8.292h8.719l-7.054 5.124 2.694 8.292L12 16.584l-7.053 5.124 2.694-8.292L.587 8.292h8.719L12 0z" fill="#fff"/></svg></svg>