<svg width="198" height="64" viewBox="0 0 198 64" fill="none" xmlns="http://www.w3.org/2000/svg">
<path d="M122.278 16.5117V43.6847C122.278 46.344 121.013 46.9081 119.958 46.9081C119.31 46.9185 118.672 46.7513 118.112 46.4246C117.49 46.0323 116.919 45.5639 116.412 45.0305L102.761 27.0683V46.618H97.0636V19.4772C97.0289 18.6944 97.294 17.9278 97.8049 17.3337C98.0787 17.0561 98.4088 16.8405 98.7731 16.7015C99.1373 16.5624 99.5272 16.5032 99.9163 16.5278C100.474 16.5254 101.025 16.6494 101.528 16.8905C102.113 17.2036 102.616 17.651 102.995 18.1959L116.581 36.0695V16.5117H122.278Z" fill="white"/>
<path d="M173.715 32.7334H170.637V46.6342H173.715V32.7334Z" fill="white"/>
<path d="M186.955 32.7334V45.1273C186.955 46.5698 186.149 46.7873 185.706 46.7873C185.373 46.7936 185.045 46.7101 184.755 46.5456C184.465 46.356 184.195 46.1373 183.949 45.8928V45.8445L178.268 38.3743V46.6342H175.279V34.2887C175.263 33.8825 175.401 33.4853 175.665 33.1767C175.807 33.0281 175.979 32.9117 176.169 32.8352C176.36 32.7587 176.564 32.724 176.769 32.7334C177.049 32.7376 177.324 32.8037 177.575 32.9268C177.869 33.0775 178.121 33.2991 178.309 33.5715L183.949 41.0256V32.7334H186.955Z" fill="white"/>
<path d="M191.444 38.1644C191.241 38.6605 191.14 39.192 191.146 39.7277C191.136 40.2571 191.232 40.7831 191.428 41.2749C191.61 41.7245 191.884 42.1308 192.233 42.4676C192.589 42.813 193.007 43.0866 193.466 43.2734C193.98 43.4736 194.527 43.5721 195.078 43.5635H197.431V46.6499H195.118C194.148 46.6582 193.187 46.4719 192.29 46.1019C191.458 45.7564 190.704 45.2466 190.074 44.6031C189.427 43.9551 188.915 43.1855 188.567 42.3386C188.224 41.4491 188.049 40.5037 188.051 39.5504C188.042 38.6095 188.217 37.6759 188.567 36.8025C188.892 35.9879 189.386 35.2517 190.017 34.6428C190.652 34.0286 191.407 33.5513 192.233 33.2407C193.138 32.8934 194.101 32.7211 195.07 32.733H197.431V35.8194H195.118C194.567 35.8089 194.018 35.9103 193.507 36.1175C193.044 36.3012 192.622 36.5751 192.266 36.9234C191.91 37.2769 191.631 37.6992 191.444 38.1644Z" fill="white"/>
<path d="M60.0257 58.7619C62.4434 57.7604 63.5916 54.9886 62.5901 52.5709C61.5887 50.1532 58.8169 49.0051 56.3991 50.0065C53.9814 51.008 52.8333 53.7798 53.8348 56.1975C54.8362 58.6152 57.608 59.7633 60.0257 58.7619Z" fill="white"/>
<path d="M24.8683 16.5117V43.9104C24.8997 44.6684 24.6565 45.4124 24.1833 46.0055C23.9514 46.2728 23.6621 46.4842 23.3369 46.6237C23.0117 46.7633 22.6592 46.8274 22.3057 46.8114C21.692 46.8119 21.0852 46.6828 20.5248 46.4326C19.9281 46.1299 19.418 45.6807 19.0421 45.1272L0 16.5117H7.05112L18.9695 35.3281V16.5117H24.8683Z" fill="white"/>
<path d="M34.9495 16.5117H29.0508V46.618H34.9495V16.5117Z" fill="white"/>
<path d="M131.441 16.5117H125.542V46.618H131.441V16.5117Z" fill="white"/>
<path d="M173.579 16.5118V22.4105H166.125V46.5858H160.226V22.4105H143.303C142.887 22.3869 142.471 22.446 142.078 22.5843C141.685 22.7226 141.324 22.9375 141.015 23.2164C140.767 23.4396 140.568 23.7117 140.431 24.0154C140.294 24.3191 140.221 24.6479 140.217 24.9812C140.198 25.354 140.261 25.7263 140.4 26.0727C140.539 26.419 140.751 26.7312 141.023 26.9877C141.639 27.5437 142.45 27.8334 143.279 27.7935H146.172C147.456 27.781 148.73 28.0135 149.927 28.4785C151.044 28.9143 152.061 29.5723 152.917 30.4125C153.762 31.2689 154.428 32.2853 154.875 33.4022C155.35 34.5995 155.588 35.8775 155.576 37.1655C155.574 38.4703 155.299 39.7602 154.77 40.953C154.277 42.0935 153.549 43.1176 152.635 43.9587C151.7 44.8253 150.601 45.4965 149.403 45.9331C148.047 46.4102 146.618 46.6474 145.181 46.6341H134.503V40.7193H145.181C146.478 40.7701 147.757 40.3967 148.823 39.6555C149.245 39.3634 149.59 38.9733 149.829 38.5185C150.067 38.0638 150.192 37.558 150.192 37.0446C150.192 36.5312 150.067 36.0255 149.829 35.5707C149.59 35.116 149.245 34.7258 148.823 34.4337C147.76 33.6865 146.479 33.3125 145.181 33.37H142.852C141.663 33.3789 140.483 33.1685 139.371 32.7495C138.33 32.3639 137.377 31.7749 136.566 31.0169C135.77 30.2677 135.136 29.3625 134.705 28.3576C134.253 27.295 134.02 26.1521 134.02 24.9973C134.02 23.8425 134.253 22.6995 134.705 21.6369C135.154 20.6097 135.816 19.6895 136.647 18.9373C137.53 18.1436 138.563 17.5353 139.685 17.1484C140.924 16.7096 142.231 16.494 143.545 16.5118H173.579Z" fill="white"/>
<path d="M36.7619 9.02547C36.7619 9.96297 36.4838 10.8794 35.9627 11.6588C35.4417 12.4382 34.7012 13.0455 33.8349 13.4039C32.9686 13.7623 32.0155 13.8557 31.0961 13.6722C30.1768 13.4887 29.3325 13.0366 28.6701 12.3731C28.0078 11.7097 27.5571 10.8646 27.3752 9.94493C27.1933 9.02525 27.2883 8.07227 27.6482 7.20659C28.008 6.34091 28.6166 5.60144 29.3969 5.08175C30.1772 4.56207 31.0941 4.28552 32.0316 4.28712C33.2869 4.28925 34.49 4.78941 35.3769 5.67779C36.2638 6.56618 36.7619 7.77017 36.7619 9.02547Z" fill="white"/>
<path d="M90.5206 21.0808C87.7726 18.0509 83.9368 16.5117 79.0534 16.5117C74.17 16.5117 70.3664 18.067 67.5943 21.1211C65.1055 23.8968 63.7809 27.5242 63.8955 31.2506C63.8316 34.814 64.9953 38.291 67.1914 41.098C67.3687 41.3236 67.546 41.5573 67.7475 41.7749C70.584 44.9982 74.3876 46.6099 79.1018 46.6099C81.2221 46.6827 83.3323 46.2872 85.2823 45.4515C87.2323 44.6158 88.974 43.3604 90.3836 41.7749C90.6737 41.4364 90.9638 41.0738 91.2458 40.695L91.3667 40.5258L91.6246 40.139C93.3668 37.5146 94.2741 34.4245 94.2274 31.2748C94.3457 27.527 93.0185 23.8772 90.5206 21.0808ZM86.6767 37.0688C86.6473 37.1189 86.615 37.1674 86.58 37.2138C86.457 37.3866 86.3224 37.5509 86.1771 37.7054L86.0481 37.8585C85.1605 38.8052 84.0768 39.5467 82.8728 40.0311C81.6688 40.5155 80.3736 40.7311 79.0776 40.6628C78.4108 40.6635 77.7451 40.6096 77.0872 40.5016C75.295 40.2218 73.6398 39.3744 72.3649 38.0841L72.2441 37.9632L72.0829 37.8746C70.5521 36.1605 69.7335 33.9267 69.7943 31.6293C69.7198 30.3664 69.9042 29.1015 70.3362 27.9124C70.7683 26.7233 71.4388 25.6351 72.3066 24.7145C73.1745 23.7939 74.2214 23.0605 75.3829 22.5592C76.5445 22.0578 77.7963 21.7992 79.0615 21.7992C80.3266 21.7992 81.5784 22.0578 82.74 22.5592C83.9016 23.0605 84.9485 23.7939 85.8163 24.7145C86.6842 25.6351 87.3547 26.7233 87.7867 27.9124C88.2188 29.1015 88.4032 30.3664 88.3287 31.6293C88.3824 33.5736 87.8026 35.4827 86.6767 37.0688Z" fill="white"/>
<path d="M61.0824 16.5117H55.1836V46.618H61.0824V16.5117Z" fill="white"/>
<path d="M57.1022 0V10.3793H56.7073C52.7667 10.476 50.591 12.8612 50.591 17.1V39.1398V47.6817C49.5675 55.7965 43.4754 64 33.8053 64H33.4023V53.0808L33.765 53.0405C37.6008 52.6618 39.8894 50.0589 39.8894 46.0861V16.2216C39.8652 7.25258 47.424 0 56.6992 0H57.1022Z" fill="white"/>
</svg>
