<svg width="174" height="62" viewBox="0 0 174 62" fill="none" xmlns="http://www.w3.org/2000/svg">
<path d="M107.003 17.6985V40.9926C107.003 43.2722 105.928 43.7489 105.03 43.7489C104.448 43.7489 103.921 43.6107 103.462 43.3344C103.003 43.0581 102.523 42.6574 102.016 42.1393L90.4117 26.7481V43.5071H85.5685V20.2407C85.5685 19.4877 85.7808 18.866 86.1987 18.4032C86.6166 17.9403 87.2194 17.6985 87.9935 17.6985C88.4799 17.6985 88.9457 17.8022 89.3704 18.0094C89.8089 18.2236 90.2267 18.6035 90.6172 19.1285L102.166 34.4506V17.6985H107.003Z" fill="white"/>
<path d="M150.729 43.5209H148.112V31.6044H150.729V43.5209Z" fill="#E3E3E3"/>
<path d="M161.95 31.6045V42.2014C161.95 43.438 161.286 43.6245 160.888 43.6245C160.587 43.6245 160.312 43.5554 160.08 43.4173C159.875 43.286 159.649 43.0995 159.402 42.8577L159.375 42.8163L154.544 36.4125V43.5209H152.003V32.9377C152.003 32.544 152.113 32.2193 152.332 31.9844C152.483 31.8186 152.771 31.6045 153.271 31.6045C153.511 31.6045 153.75 31.6597 153.976 31.7703C154.189 31.867 154.408 32.0604 154.6 32.3229L159.416 38.7129V31.6045H161.95Z" fill="#E3E3E3"/>
<path d="M165.8 36.2606C165.629 36.6751 165.547 37.1241 165.547 37.6008C165.547 38.0912 165.621 38.5265 165.786 38.9271C165.957 39.3347 166.177 39.6663 166.471 39.9495C166.766 40.2397 167.122 40.4607 167.52 40.6265C167.924 40.7923 168.383 40.8752 168.89 40.8752H170.856V43.521H168.89C168.027 43.521 167.218 43.3621 166.485 43.0512C165.773 42.7542 165.143 42.319 164.601 41.7663C164.073 41.2206 163.656 40.5712 163.361 39.839C163.074 39.086 162.923 38.2847 162.923 37.4488C162.923 36.5922 163.074 35.7978 163.361 35.0931C163.649 34.3747 164.067 33.753 164.594 33.2418C165.122 32.7237 165.739 32.3299 166.478 32.0398C167.205 31.7496 168.012 31.6046 168.89 31.6046H170.856V34.2504H168.89C168.403 34.2504 167.965 34.3333 167.547 34.506C167.136 34.6718 166.786 34.9066 166.492 35.1968C166.198 35.4938 165.972 35.8392 165.8 36.2606Z" fill="#E3E3E3"/>
<path d="M56.5706 50.1666C56.5706 52.4048 54.7621 54.2285 52.5426 54.2285C50.323 54.2285 48.5145 52.4048 48.5145 50.1666C48.5145 47.9283 50.323 46.1046 52.5426 46.1046C54.7621 46.1046 56.5706 47.9283 56.5706 50.1666Z" fill="white"/>
<path d="M24.1955 17.6985V41.1653C24.1955 41.8975 23.9968 42.5054 23.6132 42.9614C23.2159 43.438 22.6747 43.6798 22.0171 43.6798C21.4896 43.6798 20.9827 43.5693 20.5031 43.3551C20.0236 43.1203 19.5989 42.7472 19.2427 42.2429L3.05518 17.6985H9.04927L19.181 33.8289V17.6985H24.1955Z" fill="white"/>
<path d="M32.7655 43.5071H27.751V17.6985H32.7655V43.5071Z" fill="white"/>
<path d="M114.792 43.5071H109.778V17.6985H114.792V43.5071Z" fill="white"/>
<path d="M150.613 17.6985V22.7552H144.276V43.5071H139.262V22.7552H124.876C124.033 22.7552 123.396 22.9763 122.931 23.4253C122.464 23.8743 122.239 24.3855 122.239 24.9865C122.239 25.6704 122.478 26.2231 122.958 26.679C123.451 27.1418 124.075 27.3698 124.876 27.3698H127.335C128.473 27.3698 129.548 27.5632 130.528 27.957C131.5 28.3439 132.35 28.9034 133.069 29.6149C133.775 30.3334 134.336 31.19 134.733 32.1778C135.13 33.1657 135.329 34.2503 135.329 35.4039C135.329 36.5645 135.111 37.6559 134.678 38.6507C134.254 39.6386 133.644 40.5021 132.864 41.2274C132.096 41.9459 131.158 42.5054 130.062 42.9061C128.986 43.2998 127.773 43.5071 126.472 43.5071H117.395V38.4504H126.472C127.726 38.4504 128.766 38.1395 129.568 37.5385C130.356 36.9444 130.733 36.2122 130.733 35.3003C130.733 34.3815 130.356 33.6493 129.568 33.0621C128.774 32.4542 127.733 32.1502 126.472 32.1502H124.492C123.438 32.1502 122.444 31.9706 121.533 31.6183C120.615 31.266 119.814 30.7686 119.148 30.133C118.478 29.4975 117.944 28.7307 117.567 27.8534C117.176 26.9899 116.984 26.0158 116.984 24.9589C116.984 23.9227 117.176 22.9556 117.567 22.092C117.944 21.2147 118.505 20.4341 119.218 19.7778C119.93 19.1216 120.799 18.6035 121.8 18.2442C122.78 17.8781 123.889 17.6985 125.081 17.6985H150.613Z" fill="white"/>
<path d="M34.3069 11.2809C34.3069 13.5192 32.5052 15.3429 30.2857 15.3429C28.0662 15.3429 26.2577 13.5192 26.2577 11.2809C26.2577 9.04273 28.0662 7.21899 30.2857 7.21899C32.5052 7.21899 34.3069 9.04273 34.3069 11.2809Z" fill="white"/>
<path d="M76.7381 35.3419C76.7176 35.3833 76.6833 35.4248 76.6559 35.4662C76.5463 35.6113 76.4436 35.7563 76.3134 35.8876C76.3066 35.8945 76.2997 35.9083 76.2929 35.9152L76.1833 36.0465C74.7584 37.6422 72.7786 38.4505 70.2577 38.4505C69.6685 38.4505 69.1068 38.4021 68.5656 38.3123H68.5588C66.9626 38.0429 65.6131 37.3521 64.5444 36.2675L64.4417 36.1639C64.4074 36.1225 64.3663 36.081 64.3321 36.0396C63.0442 34.6027 62.3866 32.7997 62.3866 30.6858C62.3866 28.3992 63.1333 26.4857 64.5992 24.9867C66.0721 23.5083 67.9765 22.7553 70.2988 22.7553C72.5868 22.7553 74.4844 23.5014 75.9572 24.9728C77.4232 26.4443 78.163 28.3647 78.163 30.6858C78.163 32.475 77.6835 34.0431 76.7381 35.3419ZM80.0058 21.6155C77.6698 19.0181 74.409 17.6986 70.2577 17.6986C66.1474 17.6986 62.8729 19.0319 60.5164 21.65C58.427 23.9643 57.3721 26.8795 57.3721 30.3335C57.3721 33.5596 58.3106 36.4057 60.1739 38.789C60.3246 38.9824 60.4753 39.1827 60.6466 39.3693C63.0579 42.1187 66.2913 43.5072 70.2988 43.5072C74.2583 43.5072 77.4917 42.1187 79.9099 39.3693C80.1565 39.0791 80.4031 38.7683 80.6429 38.4436L80.7456 38.2985C80.821 38.1811 80.8963 38.0775 80.9648 37.9669C82.4308 35.7771 83.1775 33.2073 83.1775 30.3335C83.1775 26.8795 82.1088 23.9435 80.0058 21.6155Z" fill="white"/>
<path d="M68.5587 38.3121C66.9626 38.0427 65.6131 37.3519 64.5444 36.2673L64.4417 36.1637H64.4485L64.5855 36.2673C65.661 37.345 66.99 38.0358 68.5587 38.3121Z" fill="white"/>
<path d="M54.9813 43.5071H49.9668V17.6985H54.9813V43.5071Z" fill="white"/>
<path d="M51.5971 3.54376V12.4414L51.2615 12.4483C47.9116 12.5312 46.062 14.576 46.062 18.2096L46.0483 37.1032L46.0415 44.3912V44.4189C45.1715 51.3753 39.9926 58.4077 31.7721 58.4077H31.4296V49.0473L31.7378 49.0127C34.9986 48.6881 36.9441 46.4567 36.9441 43.0511L36.9373 17.4497C36.9441 9.78175 43.3698 3.54376 51.2546 3.54376H51.5971Z" fill="#1B75BC"/>
</svg>
