<svg width="72" height="62" viewBox="0 0 72 62" fill="none" xmlns="http://www.w3.org/2000/svg">
<path opacity="0.1" d="M37.5437 43.3475C37.5437 33.9774 41.4125 24.9576 49.15 16.2881C51.6486 13.3107 57.2503 8.62571 65.955 2.23305L69.7029 0L72 4.33475C66.2774 8.80085 62.2071 12.3475 59.7892 14.9746C55.5174 19.6158 53.3815 23.9068 53.3815 27.8475C53.3815 28.9859 53.5024 30.0805 53.7442 31.1314C54.0666 32.0946 54.6711 33.0579 55.5577 34.0212L57.8548 36.5169C60.5146 39.4068 62.2877 41.6398 63.1743 43.2161C64.1415 44.7924 64.6251 46.8503 64.6251 49.3898C64.6251 53.4181 63.3758 56.5268 60.8773 58.7161C58.3787 60.9054 55.3562 62 51.8098 62C47.6186 62 44.1931 60.161 41.5333 56.4831C38.8736 52.8051 37.5437 48.4266 37.5437 43.3475ZM0 43.3475C0 35.291 2.09559 28.3291 6.28677 22.4619C10.4779 16.5946 17.8528 9.8517 28.4114 2.23305L32.0383 0L34.3354 4.33475C28.9352 8.53814 24.9456 12.041 22.3664 14.8432C17.9334 19.6596 15.7169 23.9506 15.7169 27.7161C15.7169 28.9421 15.9184 30.1243 16.3214 31.2627C16.7244 32.3136 17.2886 33.2331 18.014 34.0212L20.3111 36.5169C22.7291 39.0565 24.462 41.2458 25.5098 43.0847C26.5576 44.8362 27.0815 47.0254 27.0815 49.6525C27.0815 52.8051 25.9934 55.6511 23.8172 58.1907C21.641 60.7302 18.4573 62 14.2661 62C10.2361 62 6.85096 60.2486 4.11058 56.7458C1.37019 53.2429 0 48.7768 0 43.3475Z" fill="#1B75BC"/>
</svg>
