<svg width="198" height="64" viewBox="0 0 198 64" fill="none" xmlns="http://www.w3.org/2000/svg"><path d="M122.278 16.512v27.173c0 2.659-1.265 3.223-2.32 3.223a3.55 3.55 0 0 1-1.846-.483 8.885 8.885 0 0 1-1.7-1.394l-13.651-17.963v19.55h-5.697v-27.14a3.08 3.08 0 0 1 .74-2.144 2.724 2.724 0 0 1 2.112-.806 3.692 3.692 0 0 1 1.612.363 4.2 4.2 0 0 1 1.467 1.305l13.586 17.873V16.512h5.697Zm51.437 16.221h-3.078v13.901h3.078v-13.9Zm13.24 0v12.394c0 1.443-.806 1.66-1.249 1.66a1.855 1.855 0 0 1-.951-.241 5.11 5.11 0 0 1-.806-.653v-.049l-5.681-7.47v8.26h-2.989V34.29a1.613 1.613 0 0 1 .386-1.112 1.443 1.443 0 0 1 1.104-.444c.28.005.555.07.806.194.294.15.546.372.734.645l5.64 7.454v-8.293h3.006Zm4.489 5.431a4.009 4.009 0 0 0-.298 1.564c-.01.53.086 1.055.282 1.547.182.45.456.856.805 1.193a3.86 3.86 0 0 0 1.233.805c.514.2 1.061.3 1.612.29h2.353v3.087h-2.313a7.251 7.251 0 0 1-2.828-.548 6.694 6.694 0 0 1-2.216-1.499 6.935 6.935 0 0 1-1.507-2.264 7.705 7.705 0 0 1-.516-2.789 7.202 7.202 0 0 1 .516-2.747 6.187 6.187 0 0 1 1.45-2.16 6.458 6.458 0 0 1 2.216-1.402 7.657 7.657 0 0 1 2.837-.508h2.361v3.086h-2.313c-.551-.01-1.1.091-1.611.298a3.754 3.754 0 0 0-1.241.806 3.684 3.684 0 0 0-.822 1.241ZM60.026 58.762a4.738 4.738 0 1 0-3.627-8.756 4.738 4.738 0 0 0 3.627 8.756Zm-35.158-42.25V43.91a3.15 3.15 0 0 1-.685 2.096 2.344 2.344 0 0 1-1.877.805 4.36 4.36 0 0 1-1.781-.378 3.956 3.956 0 0 1-1.483-1.306L0 16.512h7.051L18.97 35.328V16.512h5.9Zm10.082 0h-5.9v30.106h5.9V16.512Zm96.491 0h-5.899v30.106h5.899V16.512Zm42.138 0v5.898h-7.454v24.176h-5.899V22.41h-16.923a3.151 3.151 0 0 0-2.288.805 2.407 2.407 0 0 0-.798 1.765 2.579 2.579 0 0 0 .806 2.007 3.142 3.142 0 0 0 2.256.806h2.893c1.284-.013 2.558.22 3.755.684a8.872 8.872 0 0 1 2.99 1.934 9.04 9.04 0 0 1 1.958 2.99 9.953 9.953 0 0 1 .701 3.764 9.378 9.378 0 0 1-.806 3.787 8.867 8.867 0 0 1-2.135 3.006 9.58 9.58 0 0 1-3.232 1.974 12.377 12.377 0 0 1-4.222.701h-10.678V40.72h10.678a5.971 5.971 0 0 0 3.642-1.063 3.183 3.183 0 0 0 1.369-2.611 3.18 3.18 0 0 0-1.369-2.611 5.881 5.881 0 0 0-3.642-1.064h-2.329a9.667 9.667 0 0 1-3.481-.62 8.36 8.36 0 0 1-2.805-1.733 7.964 7.964 0 0 1-1.861-2.66 8.585 8.585 0 0 1 0-6.72 7.92 7.92 0 0 1 1.942-2.7 8.87 8.87 0 0 1 3.038-1.789 11.112 11.112 0 0 1 3.86-.636h30.034ZM36.762 9.025a4.738 4.738 0 1 1-9.476 0 4.738 4.738 0 0 1 9.476 0ZM90.52 21.08c-2.747-3.03-6.583-4.568-11.467-4.568-4.883 0-8.687 1.555-11.459 4.61a14.506 14.506 0 0 0-3.698 10.129 15.53 15.53 0 0 0 3.295 9.847c.178.226.355.46.556.677 2.837 3.223 6.64 4.835 11.355 4.835a14.433 14.433 0 0 0 11.282-4.835c.29-.339.58-.701.862-1.08l.12-.17.259-.386a15.609 15.609 0 0 0 2.602-8.864 14.61 14.61 0 0 0-3.706-10.194Zm-3.842 15.99a4.674 4.674 0 0 1-.5.637l-.129.153a8.913 8.913 0 0 1-6.97 2.804c-.667 0-1.333-.053-1.99-.161a8.477 8.477 0 0 1-4.723-2.418l-.12-.12-.162-.09a9.018 9.018 0 0 1-2.289-6.245 9.284 9.284 0 1 1 18.535 0 8.97 8.97 0 0 1-1.652 5.44ZM61.082 16.512h-5.898v30.106h5.898V16.512Z" fill="#fff"/><path d="M57.102 0v10.38h-.395c-3.94.096-6.116 2.481-6.116 6.72v30.582C49.568 55.796 43.475 64 33.805 64h-.403V53.08l.363-.04c3.836-.378 6.124-2.981 6.124-6.954V16.222C39.865 7.252 47.424 0 56.7 0h.403Z" fill="#fff"/></svg>