<svg width="718" height="235" viewBox="0 0 718 235" fill="none" xmlns="http://www.w3.org/2000/svg">
<path d="M444.531 60.6471V160.21C444.531 169.954 439.933 171.991 436.095 171.991C433.606 171.991 431.35 171.401 429.388 170.22C427.425 169.039 425.375 167.326 423.207 165.112L373.588 99.3267V170.958H352.879V71.5128C352.879 68.2944 353.787 65.637 355.573 63.6588C357.36 61.6805 359.938 60.6471 363.248 60.6471C365.327 60.6471 367.319 61.09 369.135 61.9757C371.01 62.8911 372.797 64.515 374.466 66.759L423.849 132.249V60.6471H444.531Z" fill="black"/>
<path d="M631.497 171.017H620.308V120.084H631.497V171.017Z" fill="#6D6F71"/>
<path d="M679.477 120.084V165.377C679.477 170.662 676.636 171.46 674.937 171.46C673.648 171.46 672.473 171.164 671.48 170.574C670.602 170.013 669.635 169.216 668.581 168.182L668.463 168.005L647.81 140.634V171.017H636.943V125.782C636.943 124.099 637.415 122.711 638.352 121.708C638.996 120.999 640.227 120.084 642.365 120.084C643.39 120.084 644.415 120.32 645.379 120.792C646.29 121.206 647.227 122.032 648.047 123.154L668.639 150.466V120.084H679.477Z" fill="#6D6F71"/>
<path d="M695.939 139.985C695.207 141.757 694.855 143.676 694.855 145.713C694.855 147.809 695.175 149.67 695.878 151.382C696.61 153.124 697.55 154.541 698.807 155.752C700.069 156.992 701.592 157.937 703.291 158.646C705.019 159.354 706.982 159.709 709.15 159.709H717.556V171.017H709.15C705.459 171.017 701.999 170.338 698.868 169.009C695.822 167.74 693.127 165.88 690.813 163.517C688.555 161.185 686.771 158.409 685.508 155.28C684.281 152.061 683.637 148.636 683.637 145.063C683.637 141.402 684.281 138.007 685.508 134.995C686.739 131.924 688.528 129.267 690.781 127.082C693.039 124.867 695.675 123.184 698.836 121.944C701.944 120.704 705.397 120.084 709.15 120.084H717.556V131.393H709.15C707.07 131.393 705.195 131.747 703.408 132.485C701.651 133.194 700.154 134.198 698.898 135.438C697.638 136.707 696.671 138.184 695.939 139.985Z" fill="#6D6F71"/>
<path d="M228.888 199.422C228.888 208.988 221.155 216.783 211.665 216.783C202.174 216.783 194.442 208.988 194.442 199.422C194.442 189.855 202.174 182.06 211.665 182.06C221.155 182.06 228.888 189.855 228.888 199.422Z" fill="black"/>
<path d="M90.4564 60.6472V160.949C90.4564 164.078 89.607 166.677 87.9667 168.625C86.2678 170.663 83.9538 171.696 81.1418 171.696C78.8864 171.696 76.7188 171.224 74.6684 170.308C72.618 169.305 70.8019 167.71 69.2788 165.555L0.0633545 60.6472H25.6933L69.0152 129.591V60.6472H90.4564Z" fill="black"/>
<path d="M127.1 170.958H105.659V60.6468H127.1V170.958Z" fill="#231F20"/>
<path d="M477.835 170.958H456.394V60.6468H477.835V170.958Z" fill="#231F20"/>
<path d="M631.001 60.6472V82.2605H603.906V170.958H582.465V82.2605H520.953C517.347 82.2605 514.626 83.2054 512.634 85.1246C510.639 87.0438 509.676 89.2288 509.676 91.7976C509.676 94.7207 510.701 97.0828 512.751 99.0316C514.86 101.01 517.526 101.984 520.953 101.984H531.469C536.331 101.984 540.93 102.811 545.118 104.494C549.278 106.147 552.91 108.539 555.985 111.58C559.002 114.651 561.401 118.312 563.1 122.535C564.799 126.757 565.649 131.393 565.649 136.323C565.649 141.284 564.714 145.949 562.866 150.201C561.053 154.423 558.443 158.114 555.107 161.214C551.826 164.285 547.813 166.677 543.127 168.389C538.528 170.072 533.34 170.958 527.778 170.958H488.967V149.345H527.778C533.138 149.345 537.588 148.016 541.015 145.447C544.386 142.908 545.994 139.778 545.994 135.881C545.994 131.954 544.386 128.824 541.015 126.314C537.62 123.716 533.167 122.417 527.778 122.417H519.313C514.802 122.417 510.555 121.649 506.659 120.143C502.734 118.637 499.307 116.511 496.462 113.795C493.595 111.078 491.31 107.801 489.699 104.051C488.027 100.36 487.206 96.197 487.206 91.6795C487.206 87.2505 488.027 83.1168 489.699 79.426C491.31 75.6761 493.712 72.3396 496.758 69.5346C499.805 66.7296 503.522 64.5151 507.798 62.9798C511.99 61.4148 516.732 60.6472 521.829 60.6472H631.001Z" fill="#231F20"/>
<path d="M133.691 33.217C133.691 42.7836 125.988 50.5786 116.497 50.5786C107.007 50.5786 99.274 42.7836 99.274 33.217C99.274 23.6505 107.007 15.8555 116.497 15.8555C125.988 15.8555 133.691 23.6505 133.691 33.217Z" fill="#231F20"/>
<path d="M315.122 136.058C315.034 136.235 314.887 136.412 314.77 136.589C314.301 137.21 313.862 137.83 313.305 138.391C313.276 138.42 313.247 138.479 313.218 138.509L312.749 139.07C306.656 145.89 298.191 149.345 287.412 149.345C284.893 149.345 282.491 149.138 280.177 148.754H280.148C273.323 147.603 267.552 144.65 262.983 140.015L262.544 139.572C262.397 139.394 262.221 139.217 262.075 139.04C256.568 132.899 253.756 125.192 253.756 116.157C253.756 106.384 256.949 98.2051 263.217 91.7978C269.515 85.4792 277.658 82.2608 287.588 82.2608C297.371 82.2608 305.485 85.4496 311.782 91.7388C318.051 98.0279 321.214 106.236 321.214 116.157C321.214 123.805 319.164 130.507 315.122 136.058ZM329.094 77.3889C319.105 66.287 305.162 60.6474 287.412 60.6474C269.837 60.6474 255.836 66.346 245.76 77.5366C236.826 87.4279 232.315 99.8881 232.315 114.651C232.315 128.44 236.328 140.605 244.295 150.792C244.94 151.618 245.584 152.475 246.316 153.272C256.627 165.023 270.452 170.958 287.588 170.958C304.518 170.958 318.344 165.023 328.683 153.272C329.738 152.032 330.792 150.703 331.818 149.315L332.257 148.695C332.579 148.193 332.901 147.75 333.194 147.278C339.463 137.918 342.655 126.934 342.655 114.651C342.655 99.8881 338.086 87.3393 329.094 77.3889Z" fill="black"/>
<path d="M280.148 148.754C273.323 147.602 267.552 144.649 262.983 140.014L262.543 139.571H262.573L263.159 140.014C267.757 144.62 273.44 147.573 280.148 148.754Z" fill="#231F20"/>
<path d="M222.092 170.958H200.651V60.6468H222.092V170.958Z" fill="black"/>
<path d="M207.622 0.14682V38.1769L206.186 38.2064C191.863 38.5607 183.954 47.3006 183.954 62.8315L183.896 143.586L183.866 174.737V174.855C180.146 204.588 158.002 234.646 122.853 234.646H121.388V194.638L122.706 194.49C136.649 193.102 144.968 183.565 144.968 169.009L144.938 59.5836C144.968 26.8092 172.443 0.14682 206.157 0.14682H207.622Z" fill="#1B75BC"/>
</svg>
